<?xml version="1.0" standalone="no"?><!-- Generator: Gravit.io --><svg xmlns="http://www.w3.org/2000/svg" xmlns:xlink="http://www.w3.org/1999/xlink" style="isolation:isolate" viewBox="0 104.194 595.276 633.503" width="595.276" height="633.503"><g><g><path d=" M 447.708 117.68 L 516.015 117.68 C 519.043 117.68 521.536 115.186 521.536 112.158 C 521.536 109.13 519.043 106.637 516.015 106.637 L 447.708 106.637 C 444.68 106.637 442.186 109.13 442.186 112.158 C 442.186 115.186 444.68 117.68 447.708 117.68 Z " fill="rgb(74,169,79)"/><path d=" M 81.772 117.68 L 150.079 117.68 C 153.106 117.68 155.6 115.186 155.6 112.158 C 155.6 109.13 153.106 106.637 150.079 106.637 L 81.772 106.637 C 78.744 106.637 76.25 109.13 76.25 112.158 C 76.25 115.186 78.655 117.68 81.772 117.68 Z " fill="rgb(74,169,79)"/><circle vector-effect="non-scaling-stroke" cx="519.4878885264964" cy="167.55181792930472" r="5.521548208613922" fill="rgb(74,169,79)"/><circle vector-effect="non-scaling-stroke" cx="297.29010174437053" cy="150.18565824092212" r="5.521548208613979" fill="rgb(74,169,79)"/><path d=" M 194.874 167.641 C 194.963 167.641 195.052 167.641 195.141 167.641 C 215.892 167.641 225.154 154.639 232.189 142.527 C 234.505 138.519 243.054 125.161 255.166 121.687 C 270.128 117.324 286.069 124.27 292.303 137.896 C 293.193 139.855 295.153 141.013 297.112 141.102 C 297.201 141.102 297.29 141.102 297.379 141.102 C 297.468 141.102 297.557 141.102 297.735 141.102 C 299.695 141.013 301.654 139.855 302.544 137.896 C 308.778 124.27 324.72 117.324 339.681 121.687 C 351.793 125.25 360.343 138.519 362.658 142.527 C 369.694 154.728 378.956 167.641 399.973 167.641 C 399.973 167.641 399.973 167.641 399.973 167.641 C 412.619 167.641 427.581 158.201 431.767 140.122 C 435.24 125.161 428.828 111.624 414.846 104.766 C 412.085 103.431 408.79 104.499 407.454 107.26 C 406.118 110.021 407.187 113.316 409.947 114.652 C 423.217 121.242 422.059 132.909 420.991 137.629 C 418.853 146.891 410.66 156.687 399.884 156.687 C 386.08 156.687 379.49 149.74 372.098 137.005 C 368.447 130.771 358.294 115.631 342.709 111.09 C 325.699 106.102 307.71 112.069 297.379 125.161 C 287.049 112.069 269.059 106.102 252.049 111.09 C 236.464 115.631 226.311 130.771 222.66 137.005 C 215.268 149.74 208.678 156.687 195.141 156.687 C 195.052 156.687 194.963 156.687 194.963 156.687 C 183.208 156.598 175.727 148.405 173.59 140.3 C 172.521 136.471 170.294 123.379 185.256 114.474 C 187.839 112.96 188.729 109.576 187.126 106.904 C 185.523 104.321 182.228 103.431 179.556 105.034 C 162.368 115.275 159.697 131.484 162.903 143.239 C 166.821 157.756 179.735 167.552 194.874 167.641 Z " fill="rgb(74,169,79)"/><path d=" M 297.468 687.557 L 297.557 687.557 L 297.557 687.557 L 297.468 687.557 L 297.468 687.557 Z " fill="rgb(74,169,79)"/><circle vector-effect="non-scaling-stroke" cx="73.13305592047827" cy="167.55181792930472" r="5.52154820861395" fill="rgb(74,169,79)"/><circle vector-effect="non-scaling-stroke" cx="57.63709804469073" cy="112.24727861399401" r="5.52154820861395" fill="rgb(74,169,79)"/><circle vector-effect="non-scaling-stroke" cx="539.0804789441588" cy="112.24727861399401" r="5.521548208613922" fill="rgb(74,169,79)"/><circle vector-effect="non-scaling-stroke" cx="568.6474790289948" cy="466.07165011114296" r="5.521548208613922" fill="rgb(74,169,79)"/><circle vector-effect="non-scaling-stroke" cx="546.4722289653679" cy="592.3548010758942" r="5.521548208613922" fill="rgb(74,169,79)"/><circle vector-effect="non-scaling-stroke" cx="511.02745175523313" cy="608.1179306391953" r="5.521548208613979" fill="rgb(74,169,79)"/><path d=" M 183.386 132.909 C 183.386 141.102 190.065 147.781 198.258 147.781 C 206.452 147.781 213.131 141.102 213.131 132.909 C 213.131 124.715 206.452 118.036 198.258 118.036 C 190.065 117.947 183.386 124.626 183.386 132.909 Z  M 198.258 128.99 C 200.396 128.99 202.177 130.771 202.177 132.909 C 202.177 135.046 200.396 136.827 198.258 136.827 C 196.121 136.827 194.34 135.046 194.34 132.909 C 194.34 130.771 196.121 128.99 198.258 128.99 Z " fill="rgb(74,169,79)"/><path d=" M 398.637 147.781 C 406.83 147.781 413.51 141.102 413.51 132.909 C 413.51 124.715 406.83 118.036 398.637 118.036 C 390.444 118.036 383.765 124.715 383.765 132.909 C 383.765 141.102 390.444 147.781 398.637 147.781 Z  M 398.637 128.99 C 400.775 128.99 402.556 130.771 402.556 132.909 C 402.556 135.046 400.775 136.827 398.637 136.827 C 396.5 136.827 394.719 135.046 394.719 132.909 C 394.719 130.771 396.5 128.99 398.637 128.99 Z " fill="rgb(74,169,79)"/><path d=" M 312.341 142.171 C 309.491 143.239 308.066 146.356 309.135 149.206 C 310.203 152.056 313.32 153.481 316.17 152.501 C 317.061 152.145 338.435 145.02 354.821 170.491 C 355.89 172.094 357.671 172.984 359.452 172.984 C 360.432 172.984 361.5 172.717 362.391 172.094 C 364.974 170.491 365.686 167.017 364.083 164.524 C 346.984 138.074 322.76 138.341 312.341 142.171 Z " fill="rgb(74,169,79)"/><path d=" M 282.596 142.171 C 281.794 141.903 274.491 139.321 264.517 140.835 C 255.255 142.171 241.986 147.425 230.942 164.613 C 229.339 167.196 230.052 170.58 232.635 172.183 C 233.525 172.806 234.594 173.073 235.573 173.073 C 237.355 173.073 239.136 172.183 240.204 170.58 C 256.502 145.109 277.876 152.234 278.855 152.59 C 281.705 153.659 284.822 152.145 285.891 149.295 C 286.959 146.445 285.445 143.239 282.596 142.171 Z " fill="rgb(74,169,79)"/><path d=" M 535.963 157.221 L 562.77 126.764 L 562.77 170.669 C 562.77 173.697 565.263 176.19 568.291 176.19 C 571.319 176.19 573.813 173.697 573.813 170.669 L 573.813 112.247 C 573.813 109.932 572.388 107.883 570.25 107.082 C 568.113 106.28 565.709 106.904 564.195 108.596 L 527.77 150.008 C 525.722 152.323 525.989 155.796 528.305 157.756 C 530.442 159.804 533.915 159.537 535.963 157.221 Z " fill="rgb(74,169,79)"/><path d=" M 27.447 176.279 C 30.475 176.279 32.968 173.786 32.968 170.758 L 32.968 126.853 L 59.774 157.31 C 61.823 159.626 65.296 159.804 67.522 157.845 C 69.838 155.796 70.016 152.323 68.057 150.097 L 31.632 108.596 C 30.118 106.904 27.714 106.28 25.576 107.082 C 23.439 107.883 22.014 109.932 22.014 112.247 L 22.014 170.758 C 22.014 173.786 24.419 176.279 27.447 176.279 Z " fill="rgb(74,169,79)"/><path d=" M 416.271 181.712 C 413.688 181.534 411.283 183.315 410.66 185.809 C 410.037 188.391 411.283 191.063 413.599 192.132 C 422.326 196.228 430.253 197.831 437.377 197.831 C 451.003 197.831 461.868 191.864 469.438 185.63 C 481.55 175.656 487.784 163.099 488.051 162.565 C 489.298 159.982 488.407 156.865 485.913 155.44 C 480.303 152.145 470.595 150.097 455.812 159.091 C 448.42 163.633 442.721 169.066 441.741 170.045 C 428.204 181.979 416.894 181.712 416.271 181.712 Z  M 449.133 178.239 C 449.222 178.15 449.311 178.061 449.4 177.972 C 453.586 173.786 465.43 164.079 474.692 163.633 C 472.02 167.463 468.013 172.628 462.58 177.17 C 454.565 183.76 446.016 186.966 436.932 186.788 C 440.672 184.829 444.858 181.979 449.133 178.239 Z " fill="rgb(74,169,79)"/><path d=" M 111.695 155.44 C 109.201 156.865 108.311 159.982 109.557 162.565 C 109.825 163.099 116.059 175.656 128.17 185.63 C 135.74 191.864 146.516 197.831 160.231 197.831 C 167.445 197.831 175.371 196.228 184.009 192.132 C 186.414 190.974 187.572 188.391 186.948 185.809 C 186.325 183.226 184.009 181.534 181.338 181.623 C 180.892 181.623 169.493 181.979 155.956 170.045 C 154.977 169.066 149.277 163.633 141.885 159.091 C 127.102 150.186 117.305 152.234 111.695 155.44 Z  M 148.565 178.239 C 152.75 181.979 156.936 184.74 160.765 186.788 C 141.529 186.966 128.794 172.272 123.005 163.633 C 132.267 164.079 144.112 173.786 148.297 177.972 C 148.386 178.061 148.475 178.15 148.565 178.239 Z " fill="rgb(74,169,79)"/><path d=" M 575.149 625.751 C 569.627 621.12 563.571 618.449 557.961 616.935 C 560.098 615.332 562.146 613.461 563.927 611.413 C 577.553 595.383 577.642 571.783 564.106 556.465 C 562.057 554.149 558.584 553.971 556.358 556.019 C 554.042 558.068 553.864 561.541 555.912 563.767 C 565.798 574.989 565.62 592.355 555.556 604.288 C 547.363 613.907 531.778 616.222 527.147 616.756 C 513.165 618.27 497.491 621.477 489.03 640.624 C 487.694 643.563 486.893 646.858 486.715 650.42 C 484.756 649.797 482.618 649.44 480.481 649.44 C 469.349 649.44 460.265 658.524 460.265 669.656 C 460.265 677.315 464.54 683.995 470.863 687.379 C 468.992 689.071 467.211 690.941 465.608 693.079 C 446.906 667.875 416.983 652.023 384.032 652.023 C 379.312 652.023 374.592 652.379 370.05 653.003 C 397.123 644.72 422.326 631.807 445.303 614.708 L 445.303 614.708 C 474.959 592.533 499.628 563.589 516.549 531.083 C 534.36 496.885 543.355 459.927 543.355 421.454 C 543.355 421.187 543.355 421.009 543.355 420.742 C 543.355 420.652 543.355 420.652 543.355 420.563 C 543.355 420.474 543.355 420.385 543.355 420.296 C 543.177 389.037 536.231 360.895 526.345 336.671 C 529.997 337.384 533.47 337.651 536.587 337.651 C 559.653 337.651 569.805 321.799 570.874 319.929 L 570.874 319.929 C 575.861 311.557 576.663 301.405 573.813 292.232 C 573.902 291.965 573.902 291.609 573.902 291.252 L 573.902 190.885 C 573.902 187.857 571.408 185.363 568.38 185.363 C 565.352 185.363 562.859 187.857 562.859 190.885 L 562.859 275.222 C 553.508 267.118 539.971 266.227 534.36 266.227 C 523.495 266.316 516.727 264.624 511.74 256.075 C 507.554 248.861 509.959 241.38 514.144 237.106 C 519.399 231.762 526.88 231.05 534.182 235.057 C 536.854 236.482 540.238 235.592 541.663 232.92 C 543.088 230.248 542.197 226.864 539.526 225.439 C 527.948 219.027 514.946 220.63 506.307 229.358 C 497.758 238.085 496.155 250.998 502.211 261.507 C 510.137 275.133 522.16 277.092 534.004 277.092 C 534.182 277.092 534.271 277.092 534.449 277.092 C 538.012 277.092 549.5 277.627 556.09 283.861 C 564.64 291.965 566.866 304.7 561.256 314.14 C 561.256 314.14 561.167 314.229 561.167 314.318 C 560.721 315.12 550.124 333.109 520.557 323.669 C 511.651 304.789 501.32 288.759 491.702 275.934 L 487.338 279.23 L 491.702 275.845 L 489.921 273.53 C 470.952 241.736 492.86 207.895 504.259 193.557 L 510.671 186.254 C 510.671 186.254 510.671 186.254 510.671 186.254 C 510.671 186.254 510.671 186.254 510.671 186.254 L 510.671 186.254 C 512.63 183.938 512.452 180.465 510.137 178.506 C 507.91 176.636 504.704 176.725 502.656 178.773 L 502.656 178.773 C 502.478 178.951 501.498 179.931 499.984 181.623 C 490.099 191.686 451.448 227.309 413.955 208.696 L 412.886 207.984 L 412.352 207.628 C 378.777 189.549 345.648 179.129 314.033 176.458 C 309.936 167.107 304.504 159.982 297.646 159.982 C 290.7 159.982 285.267 167.196 281.082 176.725 C 236.82 178.684 181.783 207.271 179.467 208.429 C 141.796 227.398 102.967 191.597 93.082 181.534 C 91.568 179.842 90.499 178.862 90.41 178.684 L 90.41 178.684 C 88.362 176.636 85.156 176.547 82.929 178.417 C 80.614 180.376 80.436 183.849 82.395 186.165 L 82.395 186.165 C 82.395 186.165 82.395 186.165 82.395 186.165 C 82.395 186.165 82.395 186.165 82.395 186.165 L 89.252 193.913 C 93.26 198.9 98.336 206.114 102.611 214.752 C 113.298 236.393 113.476 256.075 103.234 273.352 C 90.499 289.204 80.169 305.858 72.242 323.402 C 42.408 333.109 31.721 314.942 31.276 314.14 C 31.276 314.051 31.187 314.051 31.187 313.962 C 25.576 304.522 27.803 291.787 36.352 283.682 C 42.943 277.448 54.431 276.914 57.993 276.914 C 57.993 276.914 58.082 276.914 58.082 276.914 C 70.016 276.914 82.306 275.044 90.232 261.329 C 96.288 250.82 94.685 237.818 86.135 229.179 C 77.497 220.363 64.495 218.849 52.917 225.261 C 50.245 226.686 49.266 230.07 50.78 232.742 C 52.205 235.413 55.589 236.393 58.261 234.879 C 65.652 230.872 73.133 231.584 78.298 236.927 C 82.484 241.202 84.8 248.683 80.703 255.897 C 75.805 264.357 69.125 266.049 58.439 266.049 C 58.35 266.049 58.261 266.049 58.082 266.049 C 53.184 266.049 41.785 266.762 32.701 272.639 L 32.701 192.221 C 32.701 189.193 30.207 186.699 27.18 186.699 C 24.152 186.699 21.658 189.193 21.658 192.221 L 21.658 284.84 C 15.602 295.705 15.246 308.975 21.48 319.662 C 22.103 320.819 25.933 327.231 34.482 332.041 C 39.38 334.801 46.416 337.384 55.767 337.384 C 59.151 337.384 62.891 337.028 66.899 336.226 C 57.281 362.053 52.472 389.839 52.294 420.118 C 52.294 420.207 52.294 420.207 52.294 420.296 C 52.294 420.296 52.294 420.385 52.294 420.385 C 52.294 420.652 52.294 420.92 52.294 421.098 C 52.294 475.779 71.53 529.48 106.44 572.317 C 137.343 610.255 179.378 638.397 225.955 652.736 C 221.057 652.023 216.07 651.667 211.083 651.667 C 178.399 651.667 148.743 667.252 130.041 692.099 C 128.527 690.14 126.835 688.269 124.964 686.666 C 130.842 683.104 134.85 676.692 134.85 669.3 C 134.85 658.168 125.766 649.084 114.634 649.084 C 112.585 649.084 110.626 649.44 108.756 649.975 C 108.489 646.502 107.687 643.206 106.44 640.268 C 97.891 621.12 82.306 617.914 68.324 616.4 C 63.693 615.866 48.108 613.55 39.915 603.932 C 29.584 592.266 29.406 574.9 39.291 563.678 C 41.34 561.363 41.072 557.89 38.846 555.93 C 36.531 553.882 33.057 554.149 31.098 556.376 C 17.65 571.694 17.739 595.294 31.276 611.324 C 33.057 613.461 35.106 615.242 37.243 616.846 C 31.632 618.36 25.576 621.12 20.055 625.662 C 6.964 636.438 0.284 654.428 0.106 678.918 C -0.339 681.145 0.64 683.46 2.6 684.707 C 3.49 685.242 4.47 685.509 5.45 685.509 C 5.806 685.509 6.251 685.42 6.607 685.331 C 6.607 685.331 6.696 685.331 6.696 685.331 C 6.874 685.331 6.964 685.242 7.142 685.152 C 7.409 685.063 7.765 684.974 8.032 684.796 C 8.121 684.796 8.121 684.707 8.21 684.707 C 9.101 684.173 9.902 683.46 10.437 682.57 C 12.574 679.809 21.391 676.336 28.693 674.822 C 57.281 668.588 63.248 649.262 62.357 640 C 62.09 636.972 59.418 634.746 56.39 635.013 C 53.362 635.28 51.136 637.952 51.403 640.98 C 51.403 641.069 51.492 642.672 50.958 645.077 C 49.622 650.598 44.724 660.127 26.378 664.135 C 26.289 664.135 26.289 664.135 26.2 664.135 C 24.063 664.58 17.65 666.094 11.684 668.855 C 13.287 653.003 18.363 641.425 27.001 634.212 C 40.271 623.169 57.815 626.286 57.993 626.375 C 58.617 626.464 59.151 626.464 59.685 626.375 C 62.624 626.998 65.118 627.354 66.988 627.532 C 81.683 629.135 90.677 632.341 96.288 644.899 C 100.652 654.784 95.041 666.183 87.471 671.883 C 83.642 674.822 73.4 680.611 61.912 671.17 C 59.596 669.211 56.123 669.567 54.164 671.883 C 52.205 674.198 52.561 677.672 54.876 679.631 C 60.042 683.906 65.83 686.399 71.797 687.112 C 64.138 693.346 58.973 701.183 56.657 705.279 C 49.177 718.193 43.121 725.139 33.057 725.228 L 33.057 686.666 C 33.057 683.638 30.564 681.145 27.536 681.145 C 24.508 681.145 22.014 683.638 22.014 686.666 L 22.014 731.373 C 22.014 733.6 23.35 735.47 25.22 736.36 C 26.2 737.073 27.358 737.607 28.604 737.607 L 156.847 737.607 C 158.806 737.607 160.409 736.627 161.478 735.114 C 162.19 734.401 162.814 733.51 163.081 732.442 C 168.157 712.76 185.88 699.045 206.185 699.045 C 224.352 699.045 240.472 710.088 247.329 726.564 L 235.573 726.564 C 230.764 714.719 219.187 706.793 206.095 706.793 C 191.757 706.793 179.111 716.501 175.282 730.304 C 174.48 733.243 176.261 736.271 179.111 737.073 C 182.05 737.874 185.078 736.093 185.88 733.243 C 188.373 724.159 196.655 717.836 206.006 717.836 C 212.953 717.836 219.187 721.221 223.016 726.564 L 219.81 726.564 C 216.782 726.564 214.289 729.058 214.289 732.086 C 214.289 735.114 216.782 737.607 219.81 737.607 L 230.942 737.607 C 231.121 737.607 231.388 737.696 231.566 737.696 C 231.833 737.696 232.1 737.696 232.278 737.607 L 254.365 737.607 C 257.392 737.607 259.886 735.114 259.886 732.086 C 259.886 731.818 259.886 731.551 259.797 731.284 C 259.886 730.572 259.886 729.77 259.708 728.969 C 253.207 704.834 231.121 688.002 206.095 688.002 C 181.872 688.002 160.587 703.676 153.196 726.564 L 124.43 726.564 C 126.746 719.172 129.863 712.315 133.781 705.903 C 134.048 705.547 134.226 705.19 134.493 704.834 C 150.791 679.275 179.289 662.888 210.905 662.888 C 229.607 662.888 247.596 668.588 262.825 679.275 C 263.27 679.542 263.716 679.809 264.161 679.898 C 266.476 682.659 268.792 685.598 271.018 688.626 C 271.553 689.338 271.998 690.051 272.532 690.763 C 271.998 702.073 278.143 713.918 290.878 726.03 C 291.323 727.366 291.769 728.523 292.036 729.414 L 292.036 730.572 C 292.036 733.6 294.529 736.093 297.557 736.093 C 300.14 736.093 302.188 734.401 302.812 731.997 L 302.812 731.997 C 302.812 731.907 303.613 729.236 305.216 724.783 C 316.705 713.562 322.404 702.608 322.315 692.01 C 323.028 690.941 323.829 689.783 324.631 688.715 C 327.124 685.331 329.707 682.035 332.379 678.918 C 347.518 668.41 365.241 662.888 383.765 662.888 C 423.662 662.888 458.573 688.893 470.15 726.564 L 441.385 726.564 C 434.082 703.676 412.797 688.002 388.485 688.002 C 363.46 688.002 341.462 704.834 334.872 728.969 C 334.605 729.859 334.605 730.75 334.872 731.64 C 334.872 731.818 334.872 731.907 334.872 732.086 C 334.872 735.114 337.366 737.607 340.394 737.607 L 388.663 737.607 C 391.691 737.607 394.184 735.114 394.184 732.086 C 394.184 729.058 391.691 726.564 388.663 726.564 L 371.119 726.564 C 374.948 721.221 381.182 717.836 388.128 717.836 C 397.658 717.836 405.94 724.249 408.344 733.51 C 408.968 736.004 411.194 737.607 413.688 737.607 C 414.133 737.607 414.578 737.518 415.024 737.429 C 417.963 736.717 419.744 733.689 419.031 730.75 C 415.38 716.679 402.734 706.793 388.128 706.793 C 375.126 706.793 363.549 714.719 358.651 726.564 L 347.518 726.564 C 354.287 710.088 370.495 699.045 388.663 699.045 C 408.968 699.045 426.69 712.76 431.767 732.442 C 431.856 732.887 432.123 733.332 432.301 733.778 C 433.013 736.004 435.062 737.607 437.555 737.607 L 568.202 737.607 C 571.23 737.607 573.724 735.114 573.724 732.086 C 573.724 731.997 573.724 731.818 573.724 731.729 C 573.724 731.64 573.724 731.462 573.724 731.373 L 573.724 730.304 C 573.813 729.77 573.813 729.236 573.813 728.701 C 573.813 728.612 573.813 728.523 573.724 728.434 L 573.724 686.666 C 573.724 683.638 571.23 681.145 568.202 681.145 C 565.174 681.145 562.681 683.638 562.681 686.666 L 562.681 724.07 C 553.419 723.358 547.63 716.501 540.505 704.211 C 538.19 700.292 533.381 692.9 526.256 686.845 C 531.154 685.776 535.874 683.46 540.238 679.809 C 542.554 677.85 542.91 674.377 540.951 672.061 C 538.991 669.746 535.518 669.389 533.203 671.349 C 521.803 680.789 511.562 675 507.643 672.061 C 500.073 666.361 494.463 654.873 498.827 645.077 C 504.437 632.52 513.432 629.224 528.126 627.711 C 529.997 627.532 532.49 627.176 535.429 626.553 C 535.963 626.642 536.587 626.642 537.21 626.553 C 537.388 626.553 554.755 623.347 568.113 634.39 C 576.841 641.603 582.006 653.181 583.52 669.122 C 577.464 666.272 570.963 664.758 568.915 664.313 C 568.826 664.313 568.826 664.313 568.737 664.313 C 550.48 660.305 545.493 650.865 544.157 645.344 C 543.622 643.028 543.622 641.425 543.711 641.247 C 543.979 638.219 541.752 635.548 538.724 635.28 C 535.696 635.013 533.025 637.24 532.757 640.268 C 531.867 649.619 537.834 668.855 566.51 675.089 C 573.902 676.692 583.253 680.343 584.945 683.104 C 584.945 683.104 584.945 683.193 585.034 683.193 C 585.301 683.549 585.568 683.906 585.836 684.173 C 585.925 684.262 586.014 684.262 586.103 684.351 C 586.37 684.529 586.637 684.796 586.904 684.885 C 586.993 684.974 587.171 685.063 587.26 685.063 C 587.528 685.242 587.795 685.331 588.062 685.42 C 588.151 685.42 588.329 685.509 588.418 685.509 C 588.774 685.598 589.22 685.687 589.665 685.687 C 589.665 685.687 589.665 685.687 589.665 685.687 C 590.021 685.687 590.288 685.687 590.645 685.598 C 590.734 685.598 590.823 685.598 590.912 685.509 C 591.179 685.42 591.446 685.331 591.802 685.242 C 591.802 685.242 591.891 685.242 591.891 685.242 C 592.159 685.152 592.337 684.974 592.604 684.885 C 592.604 684.885 592.693 684.796 592.693 684.796 C 592.871 684.707 593.049 684.529 593.138 684.44 C 593.227 684.351 593.405 684.262 593.494 684.084 C 593.584 683.995 593.762 683.817 593.851 683.728 C 593.94 683.549 594.118 683.46 594.207 683.282 C 594.296 683.104 594.385 683.015 594.474 682.837 C 594.563 682.659 594.652 682.57 594.741 682.392 C 594.83 682.214 594.83 682.035 594.919 681.857 C 595.008 681.679 595.008 681.501 595.097 681.323 C 595.097 681.145 595.187 680.967 595.187 680.878 C 595.187 680.7 595.276 680.521 595.276 680.254 C 595.276 680.254 595.276 680.165 595.276 680.165 C 595.187 654.962 588.418 636.705 575.149 625.751 Z  M 113.031 726.475 L 55.054 726.475 C 59.953 721.488 63.426 715.521 66.098 710.89 C 68.413 706.882 76.963 693.524 89.074 690.051 C 103.323 685.865 116.682 690.763 123.272 702.073 C 118.908 709.643 115.435 717.836 113.031 726.475 Z  M 114.545 678.651 C 109.468 678.651 105.372 674.555 105.372 669.478 C 105.372 664.402 109.468 660.305 114.545 660.305 C 119.621 660.305 123.718 664.402 123.718 669.478 C 123.718 674.555 119.532 678.651 114.545 678.651 Z  M 441.028 609.098 L 441.028 609.098 L 441.83 610.077 L 441.028 609.098 Z  M 441.207 603.576 C 389.197 597.52 351.615 619.873 329.173 639.644 C 319.465 648.194 311.806 657.01 306.018 664.491 C 304.949 663.779 303.969 663.066 303.079 662.621 L 303.079 646.947 C 345.203 604.645 387.06 591.999 414.846 588.882 C 433.28 586.833 448.153 588.525 457.059 590.217 C 451.983 594.937 446.728 599.39 441.207 603.576 Z  M 506.486 525.918 C 501.142 536.16 494.997 545.956 488.229 555.396 C 481.193 553.17 472.377 551.121 461.779 550.142 C 485.379 520.218 500.341 484.506 505.15 446.835 C 512.809 445.945 523.406 442.65 531.511 437.395 C 529.373 468.298 521.002 498.043 506.486 525.918 Z  M 468.992 426.53 L 475.405 426.263 C 477.542 435.792 484.756 443.451 494.196 446.034 C 489.208 484.15 473.356 520.129 448.064 549.518 C 435.863 549.518 421.703 550.943 405.673 554.416 C 443.077 523.959 467.478 478.094 468.992 426.53 Z  M 364.35 567.241 C 360.788 568.666 358.294 569.823 357.047 570.358 C 342.264 576.235 326.412 580.065 309.847 581.312 L 457.593 433.566 C 453.14 493.056 416.092 543.462 364.35 567.241 Z  M 532.045 420.563 C 531.867 425.551 518.241 433.655 506.218 435.614 C 504.526 435.881 502.834 436.059 501.231 436.059 C 499.094 436.059 497.045 435.614 495.175 434.813 C 489.565 432.408 485.646 426.886 485.646 420.474 C 485.646 414.062 489.565 408.541 495.175 406.136 C 497.045 405.335 499.094 404.889 501.231 404.889 C 502.834 404.889 504.526 405.067 506.218 405.335 C 518.241 407.294 531.778 415.398 532.045 420.296 C 532.045 420.385 532.045 420.474 532.045 420.563 Z  M 480.481 279.675 L 482.796 282.792 L 482.796 282.792 C 503.012 309.776 526.702 351.544 531.243 403.553 C 523.228 398.388 512.72 395.093 505.15 394.202 C 499.45 349.14 479.412 308.44 449.756 277.003 C 451.003 274.42 451.715 271.482 451.715 268.454 C 451.715 264.357 450.469 260.528 448.42 257.411 L 473.712 228.556 C 468.903 246.902 471.219 264.268 480.481 279.675 Z  M 406.652 217.246 L 407.81 218.047 L 408.434 218.403 C 417.25 222.856 426.69 225.083 436.487 225.083 C 446.817 225.083 457.593 222.589 468.458 217.602 L 439.96 250.108 C 437.377 248.861 434.527 248.238 431.41 248.238 C 427.403 248.238 423.751 249.395 420.634 251.355 C 392.581 230.872 359.363 217.246 323.206 212.793 C 322.315 206.292 320.534 197.03 317.862 187.946 C 346.45 191.152 376.284 200.948 406.652 217.246 Z  M 440.672 268.454 C 440.672 272.461 438.001 275.934 434.349 277.181 C 433.459 277.448 432.479 277.627 431.499 277.627 C 431.232 277.627 430.876 277.627 430.609 277.627 C 426.512 277.27 423.217 274.153 422.505 270.235 C 422.415 269.7 422.326 269.077 422.326 268.543 C 422.326 267.919 422.415 267.385 422.505 266.762 C 423.306 262.754 426.69 259.637 430.876 259.37 C 431.054 259.37 431.321 259.37 431.499 259.37 C 431.677 259.37 431.856 259.37 432.034 259.37 C 436.13 259.637 439.604 262.576 440.494 266.494 C 440.583 267.029 440.672 267.474 440.672 268.008 C 440.583 268.097 440.672 268.276 440.672 268.454 Z  M 323.651 224.014 C 356.78 228.378 387.416 241.024 413.332 259.726 C 411.996 262.398 411.283 265.337 411.283 268.543 C 411.283 272.55 412.441 276.202 414.489 279.408 L 370.139 329.992 C 368.091 332.308 368.358 335.781 370.673 337.74 C 371.742 338.631 372.989 339.076 374.325 339.076 C 375.839 339.076 377.353 338.453 378.51 337.206 L 422.772 286.71 C 425.443 288.046 428.382 288.759 431.588 288.759 C 435.685 288.759 439.425 287.512 442.542 285.464 C 470.15 315.031 488.763 352.969 494.285 395.004 C 484.756 397.676 477.364 405.513 475.405 415.309 L 469.082 415.576 C 467.746 374.877 451.983 336.048 424.464 305.858 C 422.415 303.631 418.942 303.453 416.716 305.501 C 414.489 307.55 414.311 311.023 416.36 313.249 C 440.583 339.788 455.01 373.452 457.771 409.075 L 398.548 350.03 C 396.411 347.893 392.938 347.893 390.8 350.03 C 388.663 352.167 388.663 355.641 390.8 357.778 L 454.387 421.365 L 297.646 578.106 L 140.906 421.365 L 203.958 358.312 C 206.095 356.175 206.095 352.702 203.958 350.564 C 201.821 348.427 198.348 348.427 196.21 350.564 L 137.7 409.075 C 140.817 368.554 158.984 332.13 186.681 305.591 L 214.289 337.117 C 215.357 338.364 216.871 338.987 218.474 338.987 C 219.721 338.987 221.057 338.542 222.126 337.651 C 224.441 335.603 224.619 332.13 222.66 329.903 L 194.963 298.288 C 219.899 277.448 251.158 264.001 285.445 261.418 L 238.423 307.995 C 236.286 310.132 236.286 313.606 238.423 315.743 C 239.492 316.812 240.917 317.346 242.342 317.346 C 243.767 317.346 245.103 316.812 246.26 315.743 L 297.914 264.624 L 348.053 314.763 C 350.19 316.901 353.663 316.901 355.801 314.763 C 357.938 312.626 357.938 309.153 355.801 307.015 L 310.203 261.418 C 338.435 263.556 365.33 272.996 388.752 289.115 C 391.245 290.807 394.719 290.184 396.411 287.69 C 398.103 285.196 397.479 281.723 394.986 280.031 C 367.912 261.418 336.386 251.087 303.435 250.108 L 303.435 246.189 C 313.766 243.696 322.048 234.879 323.651 224.014 Z  M 162.725 290.184 C 165.842 290.184 168.781 289.471 171.363 288.224 L 179.289 297.308 C 147.852 327.32 127.814 369.088 126.211 415.487 L 121.758 415.22 C 119.621 404.8 111.517 396.607 101.097 394.47 C 106.53 353.236 124.697 316.01 151.414 286.799 C 154.709 288.937 158.539 290.184 162.725 290.184 Z  M 153.552 270.057 C 153.552 269.611 153.552 269.255 153.641 268.81 C 153.641 268.543 153.73 268.365 153.73 268.097 C 154.531 264.179 157.916 261.151 162.012 260.884 C 162.19 260.884 162.368 260.884 162.457 260.884 C 162.547 260.884 162.547 260.884 162.636 260.884 C 166.821 260.884 170.384 263.734 171.452 267.652 C 171.63 268.454 171.808 269.255 171.808 270.057 C 171.808 270.68 171.719 271.303 171.63 271.927 C 170.829 275.845 167.445 278.873 163.348 279.141 C 163.081 279.141 162.903 279.141 162.636 279.141 C 161.478 279.141 160.32 278.873 159.34 278.517 C 156.045 277.27 153.552 273.886 153.552 270.057 Z  M 121.669 426.263 L 126.211 426.53 C 127.725 478.183 152.216 524.137 189.709 554.595 C 173.59 551.032 159.43 549.607 147.14 549.518 C 122.025 520.218 106.084 484.417 101.097 446.479 C 111.339 444.342 119.443 436.416 121.669 426.263 Z  M 137.61 433.566 L 285.356 581.312 C 206.63 575.345 143.577 512.292 137.61 433.566 Z  M 282.507 211.813 C 284.911 195.16 293.104 172.895 297.379 171.114 C 302.277 172.984 309.847 196.05 312.163 211.724 C 312.608 214.841 312.875 217.691 312.875 220.007 C 312.875 220.986 312.786 221.877 312.608 222.767 C 311.272 229.981 304.949 235.502 297.29 235.502 C 289.631 235.502 283.308 229.981 281.972 222.767 C 281.794 221.877 281.705 220.897 281.705 220.007 C 281.794 217.602 282.061 214.841 282.507 211.813 Z  M 292.125 246.1 L 292.125 249.93 C 252.405 251.177 216.07 266.049 187.572 289.916 L 179.735 280.922 C 181.783 277.805 183.03 273.975 183.03 269.968 C 183.03 266.583 182.139 263.377 180.714 260.617 C 206.808 241.469 237.711 228.556 271.285 224.014 C 272.799 235.057 281.26 243.963 292.125 246.1 Z  M 156.134 225.083 C 165.931 225.083 175.371 222.856 184.276 218.403 C 184.811 218.136 235.663 191.686 276.807 188.124 C 274.135 197.119 272.354 206.47 271.463 212.882 C 234.861 217.424 201.108 231.584 172.877 252.601 C 169.849 250.82 166.465 249.841 162.725 249.841 C 159.608 249.841 156.669 250.553 154.086 251.8 L 124.163 217.691 C 135.117 222.589 145.804 225.083 156.134 225.083 Z  M 111.695 280.209 L 112.14 279.586 C 121.402 264.268 123.718 246.813 119.087 228.467 L 145.804 259.014 C 143.755 262.131 142.509 265.96 142.509 269.968 C 142.509 272.907 143.132 275.667 144.29 278.25 C 115.168 309.598 95.575 349.852 89.965 394.381 C 82.039 395.627 71.53 399.012 63.604 404.088 C 66.721 357.066 82.484 316.366 111.695 280.209 Z  M 63.159 420.385 C 63.337 415.22 77.675 408.095 88.985 405.78 C 91.479 405.246 93.794 404.978 95.754 404.978 C 97.268 404.978 98.603 405.156 100.028 405.602 C 106.53 407.472 111.339 413.439 111.339 420.563 C 111.339 427.688 106.53 433.655 100.028 435.525 C 98.692 435.881 97.268 436.148 95.754 436.148 C 93.705 436.148 91.39 435.881 88.985 435.347 C 77.675 432.942 63.337 425.818 63.159 420.652 C 63.159 420.474 63.159 420.474 63.159 420.385 Z  M 63.693 436.772 C 71.619 441.937 82.217 445.321 90.054 446.568 C 94.774 484.328 109.736 520.129 133.425 550.053 C 122.827 551.032 114.01 552.992 106.886 555.218 C 81.326 520.129 66.543 479.608 63.693 436.772 Z  M 114.812 565.549 C 114.545 565.192 114.277 564.925 114.01 564.569 C 140.817 557.177 170.116 561.096 190.689 565.994 C 215.536 571.961 233.703 580.599 233.881 580.688 L 233.97 580.51 C 253.652 588.347 275.115 592.711 297.557 592.711 C 319.911 592.711 341.284 588.436 360.877 580.599 L 360.877 580.599 C 360.877 580.599 361.055 580.51 361.411 580.332 C 363.727 579.352 366.131 578.373 368.358 577.304 C 375.928 574.187 388.663 569.556 403.981 565.905 C 424.731 560.918 454.12 556.999 480.926 564.48 C 476.295 570.18 471.486 575.612 466.321 580.866 C 458.84 578.818 439.782 574.9 414.044 577.66 C 386.08 580.688 344.936 592.622 302.901 631.451 L 302.901 621.744 C 302.901 618.716 300.407 616.222 297.379 616.222 C 294.351 616.222 291.858 618.716 291.858 621.744 L 291.858 630.917 C 250.09 592.533 209.123 580.688 181.338 577.66 C 154.977 574.811 135.651 579.085 128.616 581.045 C 123.985 576.235 119.265 570.981 114.812 565.549 Z  M 138.234 590.306 C 147.14 588.525 162.19 586.744 180.981 588.882 C 230.408 594.403 268.346 622.634 292.125 646.323 L 292.125 662.443 C 291.323 662.888 290.433 663.422 289.453 664.135 C 283.664 656.743 276.094 648.105 266.565 639.733 C 244.123 619.873 206.363 597.431 154.175 603.665 L 154.175 603.754 C 148.654 599.479 143.31 595.026 138.234 590.306 Z  M 276.54 677.583 C 266.12 664.224 254.721 654.161 243.321 646.591 L 243.41 646.323 C 243.143 646.234 242.876 646.145 242.609 646.145 C 223.64 633.766 204.582 628.334 189.264 626.107 C 182.05 622.367 174.925 618.181 168.068 613.639 C 201.643 612.66 232.1 624.059 258.995 647.659 C 268.257 655.764 275.56 664.135 281.082 671.349 C 279.39 673.219 277.876 675.267 276.54 677.583 Z  M 303.168 710.979 C 301.832 712.582 300.407 714.185 298.804 715.788 C 298.448 716.144 298.003 716.59 297.557 716.946 C 297.557 716.946 297.468 717.035 297.468 717.035 C 297.468 717.035 297.379 717.124 297.379 717.124 L 297.379 716.946 C 297.201 716.768 296.934 716.59 296.756 716.322 C 294.975 714.63 293.461 712.938 292.036 711.246 C 285.535 703.498 282.685 696.285 283.664 689.694 C 283.753 689.16 283.842 688.626 284.021 688.091 C 284.733 685.242 286.069 682.748 287.672 680.611 C 289.008 678.829 290.522 677.315 292.036 675.98 C 293.372 674.822 294.707 673.842 295.865 673.041 C 296.4 672.684 296.845 672.417 297.29 672.15 C 297.29 672.15 297.379 672.15 297.379 672.061 C 297.379 672.061 297.468 672.061 297.468 672.061 C 298.092 672.417 298.715 672.863 299.517 673.397 C 300.585 674.109 301.832 675.089 303.079 676.158 C 304.682 677.583 306.285 679.275 307.621 681.145 C 309.224 683.46 310.56 686.043 311.094 688.982 C 311.094 689.16 311.183 689.427 311.272 689.605 C 312.252 696.106 309.491 703.231 303.168 710.979 Z  M 324.898 670.814 C 324.72 670.992 324.542 671.17 324.453 671.349 C 322.404 673.664 320.534 675.98 318.842 678.206 C 317.506 675.891 315.992 673.753 314.389 671.883 C 319.911 664.669 327.391 656.031 336.832 647.748 C 363.549 624.237 393.917 612.838 427.225 613.639 C 420.278 618.181 413.154 622.456 405.851 626.197 C 367.734 631.985 341.641 651.756 324.898 670.814 Z  M 480.303 660.305 C 485.379 660.305 489.476 664.402 489.476 669.478 C 489.476 674.555 485.379 678.651 480.303 678.651 C 475.226 678.651 471.13 674.555 471.13 669.478 C 471.13 664.491 475.226 660.305 480.303 660.305 Z  M 508.089 688.893 C 520.2 692.455 528.75 705.725 531.065 709.732 C 533.915 714.719 537.745 721.31 543.355 726.475 L 481.817 726.475 C 479.501 718.104 476.206 710.178 472.02 702.875 C 478.789 690.763 493.928 684.707 508.089 688.893 Z " fill="rgb(74,169,79)"/><path d=" M 38.846 302.028 C 38.846 311.023 46.149 318.415 55.233 318.415 C 64.316 318.415 71.619 311.112 71.619 302.028 C 71.619 293.033 64.316 285.642 55.233 285.642 C 46.149 285.642 38.846 293.033 38.846 302.028 Z  M 60.576 302.028 C 60.576 304.967 58.171 307.372 55.233 307.372 C 52.294 307.372 49.889 304.967 49.889 302.028 C 49.889 299.089 52.294 296.685 55.233 296.685 C 58.171 296.685 60.576 299.089 60.576 302.028 Z " fill="rgb(74,169,79)"/><path d=" M 554.576 302.028 C 554.576 293.033 547.274 285.642 538.19 285.642 C 529.195 285.642 521.803 292.944 521.803 302.028 C 521.803 311.023 529.106 318.415 538.19 318.415 C 547.274 318.415 554.576 311.112 554.576 302.028 Z  M 532.846 302.028 C 532.846 299.089 535.251 296.685 538.19 296.685 C 541.129 296.685 543.533 299.089 543.533 302.028 C 543.533 304.967 541.129 307.372 538.19 307.372 C 535.251 307.461 532.846 305.056 532.846 302.028 Z " fill="rgb(74,169,79)"/><path d=" M 570.34 342.816 C 568.291 342.015 565.887 342.46 564.284 344.063 C 557.07 351.455 545.225 351.188 545.047 351.188 C 544.958 351.188 544.869 351.188 544.869 351.188 C 541.93 351.188 539.526 353.503 539.348 356.442 C 539.259 359.47 541.574 362.053 544.602 362.142 C 545.136 362.142 553.864 362.409 562.77 358.312 L 562.77 448.171 C 562.77 451.199 565.263 453.693 568.291 453.693 C 571.319 453.693 573.813 451.199 573.813 448.171 L 573.813 347.893 C 573.724 345.666 572.388 343.618 570.34 342.816 Z " fill="rgb(74,169,79)"/><path d=" M 26.467 453.693 C 29.495 453.693 31.989 451.199 31.989 448.171 L 31.989 358.312 C 40.894 362.409 49.622 362.142 50.156 362.142 C 53.184 362.053 55.589 359.47 55.411 356.442 C 55.322 353.414 52.739 351.01 49.711 351.188 C 49.622 351.188 37.688 351.455 30.475 344.063 C 28.872 342.46 26.556 342.015 24.419 342.816 C 22.37 343.618 21.035 345.666 21.035 347.893 L 21.035 448.26 C 20.946 451.288 23.439 453.693 26.467 453.693 Z " fill="rgb(74,169,79)"/><path d=" M 574.703 545.333 C 574.703 542.305 572.21 539.811 569.182 539.811 L 533.559 539.811 C 530.531 539.811 528.037 542.305 528.037 545.333 C 528.037 548.361 530.531 550.854 533.559 550.854 L 569.182 550.854 C 572.21 550.854 574.703 548.45 574.703 545.333 Z " fill="rgb(74,169,79)"/><path d=" M 537.745 566.439 C 540.773 566.439 543.266 563.946 543.266 560.918 C 543.266 557.89 540.773 555.396 537.745 555.396 L 524.03 555.396 C 521.002 555.396 518.508 557.89 518.508 560.918 C 518.508 563.946 521.002 566.439 524.03 566.439 L 537.745 566.439 Z " fill="rgb(74,169,79)"/><path d=" M 551.103 576.592 C 551.103 573.564 548.61 571.07 545.582 571.07 L 511.562 571.07 C 508.534 571.07 506.04 573.564 506.04 576.592 C 506.04 579.62 508.534 582.113 511.562 582.113 L 545.582 582.113 C 548.61 582.113 551.103 579.709 551.103 576.592 Z " fill="rgb(74,169,79)"/><path d=" M 529.551 592.355 C 529.551 589.327 527.058 586.833 524.03 586.833 L 497.402 586.833 C 494.374 586.833 491.88 589.327 491.88 592.355 C 491.88 595.383 494.374 597.876 497.402 597.876 L 524.03 597.876 C 527.058 597.876 529.551 595.383 529.551 592.355 Z " fill="rgb(74,169,79)"/><path d=" M 480.125 602.596 C 477.097 602.596 474.603 605.09 474.603 608.118 C 474.603 611.146 477.097 613.639 480.125 613.639 L 495.264 613.639 C 498.292 613.639 500.786 611.146 500.786 608.118 C 500.786 605.09 498.292 602.596 495.264 602.596 L 480.125 602.596 Z " fill="rgb(74,169,79)"/><path d=" M 569.182 508.374 L 549.322 508.374 C 546.294 508.374 543.8 510.867 543.8 513.895 C 543.8 516.923 546.294 519.417 549.322 519.417 L 569.182 519.417 C 572.21 519.417 574.703 516.923 574.703 513.895 C 574.703 510.867 572.21 508.374 569.182 508.374 Z " fill="rgb(74,169,79)"/><path d=" M 569.182 524.137 L 541.485 524.137 C 538.457 524.137 535.963 526.631 535.963 529.659 C 535.963 532.686 538.457 535.18 541.485 535.18 L 569.182 535.18 C 572.21 535.18 574.703 532.686 574.703 529.659 C 574.703 526.631 572.21 524.137 569.182 524.137 Z " fill="rgb(74,169,79)"/><path d=" M 569.182 476.937 L 560.365 476.937 C 557.337 476.937 554.844 479.43 554.844 482.458 C 554.844 485.486 557.337 487.98 560.365 487.98 L 569.182 487.98 C 572.21 487.98 574.703 485.486 574.703 482.458 C 574.703 479.43 572.21 476.937 569.182 476.937 Z " fill="rgb(74,169,79)"/><path d=" M 569.182 492.7 L 555.645 492.7 C 552.617 492.7 550.124 495.193 550.124 498.221 C 550.124 501.249 552.617 503.743 555.645 503.743 L 569.182 503.743 C 572.21 503.743 574.703 501.249 574.703 498.221 C 574.703 495.193 572.21 492.7 569.182 492.7 Z " fill="rgb(74,169,79)"/><circle vector-effect="non-scaling-stroke" cx="26.288953376430875" cy="466.3388217986565" r="5.52154820861395" fill="rgb(74,169,79)"/><circle vector-effect="non-scaling-stroke" cx="48.55326066922906" cy="592.5329155342366" r="5.52154820861395" fill="rgb(74,169,79)"/><circle vector-effect="non-scaling-stroke" cx="83.99803787936379" cy="608.2960450975378" r="5.52154820861395" fill="rgb(74,169,79)"/><path d=" M 25.755 551.032 L 61.378 551.032 C 64.405 551.032 66.899 548.539 66.899 545.511 C 66.899 542.483 64.405 539.989 61.378 539.989 L 25.755 539.989 C 22.727 539.989 20.233 542.483 20.233 545.511 C 20.233 548.628 22.727 551.032 25.755 551.032 Z " fill="rgb(74,169,79)"/><path d=" M 70.907 555.663 L 57.192 555.663 C 54.164 555.663 51.67 558.157 51.67 561.185 C 51.67 564.213 54.164 566.706 57.192 566.706 L 70.907 566.706 C 73.935 566.706 76.428 564.213 76.428 561.185 C 76.428 558.157 73.935 555.663 70.907 555.663 Z " fill="rgb(74,169,79)"/><path d=" M 83.375 571.337 L 49.355 571.337 C 46.327 571.337 43.833 573.831 43.833 576.859 C 43.833 579.887 46.327 582.38 49.355 582.38 L 83.375 582.38 C 86.403 582.38 88.896 579.887 88.896 576.859 C 88.896 573.742 86.403 571.337 83.375 571.337 Z " fill="rgb(74,169,79)"/><path d=" M 97.535 587.011 L 70.907 587.011 C 67.879 587.011 65.385 589.505 65.385 592.533 C 65.385 595.561 67.879 598.054 70.907 598.054 L 97.535 598.054 C 100.563 598.054 103.056 595.561 103.056 592.533 C 103.056 589.505 100.563 587.011 97.535 587.011 Z " fill="rgb(74,169,79)"/><path d=" M 94.151 608.296 C 94.151 611.324 96.644 613.818 99.672 613.818 L 114.812 613.818 C 117.84 613.818 120.333 611.324 120.333 608.296 C 120.333 605.268 117.84 602.774 114.812 602.774 L 99.672 602.774 C 96.644 602.774 94.151 605.268 94.151 608.296 Z " fill="rgb(74,169,79)"/><path d=" M 25.755 519.595 L 45.614 519.595 C 48.642 519.595 51.136 517.101 51.136 514.074 C 51.136 511.046 48.642 508.552 45.614 508.552 L 25.755 508.552 C 22.727 508.552 20.233 511.046 20.233 514.074 C 20.233 517.101 22.727 519.595 25.755 519.595 Z " fill="rgb(74,169,79)"/><path d=" M 25.755 535.358 L 53.451 535.358 C 56.479 535.358 58.973 532.865 58.973 529.837 C 58.973 526.809 56.479 524.315 53.451 524.315 L 25.755 524.315 C 22.727 524.315 20.233 526.809 20.233 529.837 C 20.233 532.865 22.727 535.358 25.755 535.358 Z " fill="rgb(74,169,79)"/><path d=" M 25.755 488.158 L 34.571 488.158 C 37.599 488.158 40.093 485.664 40.093 482.636 C 40.093 479.608 37.599 477.115 34.571 477.115 L 25.755 477.115 C 22.727 477.115 20.233 479.608 20.233 482.636 C 20.233 485.664 22.727 488.158 25.755 488.158 Z " fill="rgb(74,169,79)"/><path d=" M 25.755 503.832 L 39.291 503.832 C 42.319 503.832 44.813 501.338 44.813 498.31 C 44.813 495.282 42.319 492.789 39.291 492.789 L 25.755 492.789 C 22.727 492.789 20.233 495.282 20.233 498.31 C 20.233 501.427 22.727 503.832 25.755 503.832 Z " fill="rgb(74,169,79)"/><path d=" M 297.468 717.035 C 297.468 717.035 297.468 717.035 297.468 717.035 C 297.557 716.946 297.468 716.946 297.468 716.857 L 297.468 717.035 Z " fill="rgb(74,169,79)"/><path d=" M 547.897 214.396 C 547.986 214.396 547.986 214.396 547.897 214.396 C 550.391 214.396 552.617 212.704 553.241 210.21 C 555.2 202.373 554.398 195.694 550.658 190.172 C 544.691 181.267 533.737 179.575 532.49 179.396 C 529.64 179.04 526.969 180.821 526.345 183.671 C 524.297 193.022 525.455 200.503 529.908 206.025 C 536.498 214.04 546.828 214.307 547.897 214.396 Z  M 541.663 196.406 C 542.732 198.098 543.355 200.058 543.355 202.373 C 541.752 201.75 539.971 200.77 538.724 199.167 C 537.299 197.386 536.587 195.071 536.587 192.132 C 538.368 193.022 540.327 194.447 541.663 196.406 Z " fill="rgb(74,169,79)"/><path d=" M 512.096 134.779 C 506.129 125.873 495.175 124.181 493.928 124.003 C 491.079 123.647 488.407 125.428 487.784 128.278 C 485.735 137.629 486.893 145.109 491.346 150.631 C 497.758 158.646 508.089 158.913 509.246 158.913 C 509.246 158.913 509.246 158.913 509.246 158.913 C 511.74 158.913 513.966 157.221 514.59 154.728 C 516.638 147.069 515.837 140.3 512.096 134.779 Z  M 500.073 143.774 C 498.649 141.992 497.936 139.677 497.936 136.738 C 499.806 137.629 501.766 139.054 503.012 141.013 C 504.081 142.705 504.704 144.664 504.704 146.98 C 503.101 146.356 501.32 145.377 500.073 143.774 Z " fill="rgb(74,169,79)"/><path d=" M 63.515 179.396 C 62.268 179.575 51.403 181.267 45.347 190.172 C 41.696 195.694 40.805 202.373 42.765 210.21 C 43.388 212.615 45.614 214.396 48.108 214.396 C 48.108 214.396 48.108 214.396 48.108 214.396 C 49.266 214.396 59.596 214.129 66.008 206.114 C 70.461 200.592 71.619 193.022 69.571 183.76 C 69.036 180.91 66.365 179.04 63.515 179.396 Z  M 57.548 199.167 C 56.301 200.77 54.52 201.75 52.828 202.373 C 52.828 200.058 53.451 198.009 54.52 196.406 C 55.856 194.447 57.815 193.022 59.596 192.132 C 59.596 195.071 58.884 197.386 57.548 199.167 Z " fill="rgb(74,169,79)"/><path d=" M 101.275 124.003 C 100.028 124.181 89.163 125.873 83.107 134.779 C 79.456 140.3 78.566 146.98 80.525 154.817 C 81.148 157.221 83.375 159.002 85.868 159.002 C 85.868 159.002 85.868 159.002 85.868 159.002 C 87.026 159.002 97.357 158.735 103.769 150.72 C 108.222 145.198 109.379 137.629 107.331 128.367 C 106.708 125.517 104.125 123.647 101.275 124.003 Z  M 95.219 143.774 C 93.972 145.377 92.191 146.356 90.499 146.98 C 90.499 144.664 91.123 142.616 92.191 141.013 C 93.527 139.054 95.486 137.629 97.268 136.738 C 97.268 139.677 96.644 141.992 95.219 143.774 Z " fill="rgb(74,169,79)"/><path d=" M 471.219 382.981 C 471.575 385.831 473.891 387.879 476.651 387.879 C 476.829 387.879 477.097 387.879 477.275 387.879 C 480.303 387.523 482.44 384.762 482.084 381.734 C 476.562 333.644 443.7 299.624 442.275 298.199 C 440.138 296.061 436.665 295.972 434.527 298.11 C 432.39 300.247 432.301 303.72 434.438 305.858 C 434.794 306.214 466.143 338.72 471.219 382.981 Z " fill="rgb(74,169,79)"/><path d=" M 118.552 387.79 C 118.73 387.79 118.998 387.79 119.176 387.79 C 121.936 387.79 124.341 385.742 124.608 382.892 C 129.684 338.631 161.033 306.125 161.3 305.858 C 163.437 303.72 163.348 300.158 161.211 298.11 C 159.073 295.972 155.511 295.972 153.463 298.199 C 152.038 299.624 119.265 333.644 113.654 381.734 C 113.387 384.762 115.524 387.434 118.552 387.79 Z " fill="rgb(74,169,79)"/><g><path d=" M 350.378 494.457 C 351.892 492.23 351.269 489.202 349.042 487.688 C 335.773 478.872 335.061 460.17 335.061 459.19 C 335.061 459.012 335.061 458.923 335.061 458.745 C 335.061 435.679 315.379 426.862 314.577 426.506 C 312.084 425.437 309.234 426.595 308.165 429 C 307.898 429.623 307.72 430.336 307.72 430.959 C 307.72 432.829 308.789 434.61 310.659 435.412 C 310.837 435.501 324.374 441.557 325.264 457.142 L 282.08 457.142 C 276.648 456.518 272.373 453.936 269.167 449.394 C 263.849 440.578 264.05 433.67 263.763 430.336 C 263.599 425.828 263.763 356.813 263.763 350.983 C 263.349 343.334 253.849 343.334 253.938 350.983 C 253.723 353.439 253.938 428.904 253.938 430.336 C 253.938 441.201 256.521 450.195 261.775 457.409 C 266.584 463.999 272.907 467.918 280.744 469.254 L 326.689 469.521 C 328.648 477.625 333.101 488.668 343.61 495.615 C 345.836 497.396 348.864 496.772 350.378 494.457 Z " fill="rgb(74,169,79)"/></g></g></g></svg>